<svg width="136" height="31" viewBox="0 0 136 31" fill="none" xmlns="http://www.w3.org/2000/svg">
<path d="M44.5046 3.84969C44.5046 4.80107 44.2128 5.56303 43.6381 6.1313C42.9773 6.80496 42.1166 7.14392 41.0619 7.14392C40.0539 7.14392 39.1933 6.79926 38.4873 6.1199C37.7798 5.43058 37.4268 4.58459 37.4268 3.57196C37.4268 2.55934 37.7798 1.71335 38.4873 1.02972C39.1933 0.344664 40.0539 0 41.0619 0C41.5637 0 42.0422 0.10112 42.4988 0.289118C42.9539 0.47854 43.3244 0.734901 43.5928 1.05108L42.9831 1.6521C42.5148 1.11232 41.8774 0.845992 41.0619 0.845992C40.3267 0.845992 39.6893 1.09666 39.1481 1.60226C38.6127 2.10928 38.3443 2.76585 38.3443 3.57196C38.3443 4.37808 38.6127 5.04034 39.1481 5.54736C39.6893 6.04727 40.3267 6.30363 41.0619 6.30363C41.8424 6.30363 42.4988 6.04727 43.0166 5.54167C43.358 5.20697 43.552 4.74553 43.6031 4.1559H41.0619V3.33269H44.452C44.4929 3.51072 44.5046 3.68305 44.5046 3.84969Z" fill="white"/>
<path d="M49.8829 0.995528H46.6985V3.16035H49.5693V3.98356H46.6985V6.14838H49.8829V6.98725H45.797V0.156658H49.8829V0.995528Z" fill="white"/>
<path d="M53.6785 6.98725H52.777V0.995528H50.8238V0.156658H55.6332V0.995528H53.6785V6.98725Z" fill="white"/>
<path d="M59.1138 6.98725V0.156658H60.0138V6.98725H59.1138Z" fill="white"/>
<path d="M64.0035 6.98725H63.1093V0.995528H61.1487V0.156658H65.964V0.995528H64.0035V6.98725Z" fill="white"/>
<path d="M75.0695 6.10851C74.3795 6.79926 73.5247 7.14392 72.505 7.14392C71.4795 7.14392 70.6247 6.79926 69.9347 6.10851C69.2462 5.41919 68.9034 4.57319 68.9034 3.57196C68.9034 2.57073 69.2462 1.72474 69.9347 1.03541C70.6247 0.344663 71.4795 0 72.505 0C73.5189 0 74.3737 0.344663 75.0637 1.04111C75.758 1.73613 76.1008 2.57643 76.1008 3.57196C76.1008 4.57319 75.758 5.41919 75.0695 6.10851ZM70.6014 5.53597C71.1207 6.04727 71.7523 6.30363 72.505 6.30363C73.2519 6.30363 73.8894 6.04727 74.4029 5.53597C74.9207 5.02467 75.1833 4.36811 75.1833 3.57196C75.1833 2.77582 74.9207 2.11925 74.4029 1.60795C73.8894 1.09666 73.2519 0.840294 72.505 0.840294C71.7523 0.840294 71.1207 1.09666 70.6014 1.60795C70.0835 2.11925 69.821 2.77582 69.821 3.57196C69.821 4.36811 70.0835 5.02467 70.6014 5.53597Z" fill="white"/>
<path d="M77.3655 6.98725V0.156658H78.4596L81.8614 5.46903H81.9008L81.8614 4.15589V0.156658H82.7614V6.98725H81.822L78.2597 1.41283H78.2204L78.2597 2.73166V6.98725H77.3655Z" fill="white"/>
<path d="M68.6821 16.963C65.9411 16.963 63.702 18.9996 63.702 21.8096C63.702 24.5968 65.9411 26.6548 68.6821 26.6548C71.4289 26.6548 73.6681 24.5968 73.6681 21.8096C73.6681 18.9996 71.4289 16.963 68.6821 16.963ZM68.6821 24.7464C67.1781 24.7464 65.8842 23.5344 65.8842 21.8096C65.8842 20.0621 67.1781 18.8714 68.6821 18.8714C70.1861 18.8714 71.4858 20.0621 71.4858 21.8096C71.4858 23.5344 70.1861 24.7464 68.6821 24.7464ZM57.816 16.963C55.0692 16.963 52.8358 18.9996 52.8358 21.8096C52.8358 24.5968 55.0692 26.6548 57.816 26.6548C60.5613 26.6548 62.7961 24.5968 62.7961 21.8096C62.7961 18.9996 60.5613 16.963 57.816 16.963ZM57.816 24.7464C56.3105 24.7464 55.0123 23.5344 55.0123 21.8096C55.0123 20.0621 56.3105 18.8714 57.816 18.8714C59.3199 18.8714 60.6138 20.0621 60.6138 21.8096C60.6138 23.5344 59.3199 24.7464 57.816 24.7464ZM44.8857 18.4484V20.5079H49.9227C49.7754 21.6587 49.3815 22.5046 48.7776 23.0943C48.0424 23.8064 46.8973 24.5968 44.8857 24.5968C41.7859 24.5968 39.3585 22.1543 39.3585 19.1278C39.3585 16.1013 41.7859 13.6588 44.8857 13.6588C46.5618 13.6588 47.7813 14.2983 48.6813 15.1272L50.1678 13.6759C48.9089 12.5023 47.2343 11.6008 44.8857 11.6008C40.6349 11.6008 37.0625 14.9776 37.0625 19.1278C37.0625 23.278 40.6349 26.6548 44.8857 26.6548C47.1832 26.6548 48.9089 25.9199 50.2655 24.5413C51.6557 23.184 52.089 21.2755 52.089 19.7345C52.089 19.256 52.0481 18.8159 51.9752 18.4484H44.8857ZM97.7591 20.045C97.3492 18.9612 96.0845 16.963 93.5084 16.963C90.9556 16.963 88.8302 18.927 88.8302 21.8096C88.8302 24.5242 90.9337 26.6548 93.7534 26.6548C96.0334 26.6548 97.3492 25.2976 97.8904 24.5071L96.1983 23.4062C95.6337 24.2123 94.865 24.7464 93.7534 24.7464C92.6492 24.7464 91.8571 24.2522 91.3494 23.278L97.9881 20.5962L97.7591 20.045ZM90.9906 21.6587C90.9337 19.7901 92.477 18.833 93.5828 18.833C94.4492 18.833 95.1844 19.256 95.4295 19.8613L90.9906 21.6587ZM85.5947 26.36H87.777V12.1178H85.5947V26.36ZM82.0208 18.0425H81.9479C81.4577 17.4757 80.5227 16.963 79.3382 16.963C76.8525 16.963 74.5798 19.0936 74.5798 21.8253C74.5798 24.5413 76.8525 26.6548 79.3382 26.6548C80.5227 26.6548 81.4577 26.1379 81.9479 25.5539H82.0208V26.2489C82.0208 28.1019 81.007 29.0974 79.3717 29.0974C78.0384 29.0974 77.2113 28.1574 76.87 27.367L74.9722 28.1403C75.5192 29.425 76.9677 31.0059 79.3717 31.0059C81.9304 31.0059 84.0893 29.5361 84.0893 25.9598V17.2578H82.0208V18.0425ZM79.5249 24.7464C78.0209 24.7464 76.762 23.5173 76.762 21.8253C76.762 20.1176 78.0209 18.8714 79.5249 18.8714C81.007 18.8714 82.1754 20.1176 82.1754 21.8253C82.1754 23.5173 81.007 24.7464 79.5249 24.7464ZM107.976 12.1178H102.757V26.36H104.933V20.9636H107.976C110.393 20.9636 112.764 19.256 112.764 16.54C112.764 13.8254 110.387 12.1178 107.976 12.1178ZM108.033 18.9825H104.933V14.0989H108.033C109.658 14.0989 110.586 15.4163 110.586 16.54C110.586 17.6423 109.658 18.9825 108.033 18.9825ZM121.487 16.9359C119.914 16.9359 118.279 17.6138 117.607 19.1164L119.538 19.9069C119.954 19.1164 120.718 18.86 121.526 18.86C122.655 18.86 123.801 19.5223 123.818 20.6916V20.8411C123.424 20.619 122.581 20.29 121.544 20.29C119.464 20.29 117.344 21.408 117.344 23.4945C117.344 25.403 119.048 26.6321 120.963 26.6321C122.428 26.6321 123.236 25.9869 123.744 25.2363H123.818V26.3372H125.92V20.8739C125.92 18.3488 123.989 16.9359 121.487 16.9359ZM121.224 24.7407C120.513 24.7407 119.521 24.396 119.521 23.5344C119.521 22.432 120.758 22.009 121.828 22.009C122.787 22.009 123.236 22.2155 123.818 22.4876C123.647 23.8064 122.485 24.7407 121.224 24.7407ZM133.578 17.2478L131.077 23.4218H131.002L128.416 17.2478H126.069L129.955 25.8758L127.738 30.6769H130.012L136 17.2478H133.578ZM113.96 26.36H116.142V12.1178H113.96V26.36Z" fill="white"/>
<path d="M0.541191 0.76797C0.198387 1.11833 0 1.66381 0 2.37023V27.5677C0 28.2741 0.198387 28.8196 0.541191 29.1699L0.625798 29.2468L15.0877 15.1327V14.7995L0.625798 0.685365L0.541191 0.76797Z" fill="url(#paint0_linear_61_585)"/>
<path d="M19.9022 19.8396L15.0869 15.1325V14.7993L19.908 10.0922L20.016 10.1534L25.7255 13.3252C27.3549 14.2253 27.3549 15.7065 25.7255 16.6123L20.016 19.7784L19.9022 19.8396Z" fill="url(#paint1_linear_61_585)"/>
<path d="M20.0157 19.7784L15.0866 14.966L0.540039 29.1698C1.08123 29.7252 1.96377 29.7922 2.96738 29.2367L20.0157 19.7784Z" fill="url(#paint2_linear_61_585)"/>
<path d="M20.0157 10.1536L2.96738 0.695307C1.96377 0.145555 1.08123 0.212492 0.540039 0.767941L15.0866 14.9661L20.0157 10.1536Z" fill="url(#paint3_linear_61_585)"/>
<defs>
<linearGradient id="paint0_linear_61_585" x1="13.8037" y1="27.8301" x2="-5.3124" y2="8.25078" gradientUnits="userSpaceOnUse">
<stop stop-color="#00A0FF"/>
<stop offset="0.0066" stop-color="#00A1FF"/>
<stop offset="0.2601" stop-color="#00BEFF"/>
<stop offset="0.5122" stop-color="#00D2FF"/>
<stop offset="0.7604" stop-color="#00DFFF"/>
<stop offset="1" stop-color="#00E3FF"/>
</linearGradient>
<linearGradient id="paint1_linear_61_585" x1="27.8473" y1="14.9643" x2="-0.390296" y2="14.9643" gradientUnits="userSpaceOnUse">
<stop stop-color="#FFE000"/>
<stop offset="0.4087" stop-color="#FFBD00"/>
<stop offset="0.7754" stop-color="#FFA500"/>
<stop offset="1" stop-color="#FF9C00"/>
</linearGradient>
<linearGradient id="paint2_linear_61_585" x1="17.3354" y1="12.3498" x2="-8.5876" y2="-14.2013" gradientUnits="userSpaceOnUse">
<stop stop-color="#FF3A44"/>
<stop offset="1" stop-color="#C31162"/>
</linearGradient>
<linearGradient id="paint3_linear_61_585" x1="-3.12163" y1="37.553" x2="8.45414" y2="25.6968" gradientUnits="userSpaceOnUse">
<stop stop-color="#32A071"/>
<stop offset="0.0685" stop-color="#2DA771"/>
<stop offset="0.4762" stop-color="#15CF74"/>
<stop offset="0.8009" stop-color="#06E775"/>
<stop offset="1" stop-color="#00F076"/>
</linearGradient>
</defs>
</svg>
