<svg width="88" height="16" viewBox="0 0 88 16" fill="none" xmlns="http://www.w3.org/2000/svg">
<path d="M4.34448 9.54866L3.35115 13.85C3.28981 14.116 3.39648 14.3927 3.62181 14.548C3.73581 14.6267 3.86781 14.6667 4.00048 14.6667C4.12915 14.6667 4.25848 14.6293 4.37048 14.5547L8.00048 12.1347L11.6305 14.5547C11.8625 14.7093 12.1671 14.7033 12.3938 14.5387C12.6191 14.374 12.7185 14.0853 12.6418 13.8173L11.4225 9.55066L14.4465 6.82933C14.6445 6.65066 14.7171 6.372 14.6318 6.12C14.5458 5.868 14.3185 5.69066 14.0531 5.66933L10.2525 5.36666L8.60781 1.72599C8.50048 1.48666 8.26248 1.33333 8.00048 1.33333C7.73848 1.33333 7.50048 1.48666 7.39315 1.72599L5.74848 5.36666L1.94781 5.66866C1.68648 5.68933 1.46181 5.86066 1.37381 6.10666C1.28448 6.35266 1.34848 6.62799 1.53515 6.81066L4.34448 9.54866ZM6.24648 6.66466C6.48848 6.64533 6.70181 6.496 6.80115 6.274L8.00048 3.61999L9.19981 6.274C9.29915 6.496 9.51248 6.64533 9.75448 6.66466L12.4025 6.87466L10.2218 8.83733C10.0325 9.00799 9.95715 9.27066 10.0265 9.516L10.8618 12.4393L8.37115 10.7787C8.14715 10.6287 7.85581 10.6287 7.63181 10.7787L5.02915 12.514L5.72915 9.48333C5.78115 9.25666 5.71181 9.01866 5.54515 8.85666L3.51981 6.882L6.24648 6.66466Z" fill="#B4B7C9"/>
<path d="M22.3445 9.54866L21.3511 13.85C21.2898 14.116 21.3965 14.3927 21.6218 14.548C21.7358 14.6267 21.8678 14.6667 22.0005 14.6667C22.1291 14.6667 22.2585 14.6293 22.3705 14.5547L26.0005 12.1347L29.6305 14.5547C29.8625 14.7093 30.1671 14.7033 30.3938 14.5387C30.6191 14.374 30.7185 14.0853 30.6418 13.8173L29.4225 9.55066L32.4465 6.82933C32.6445 6.65066 32.7171 6.372 32.6318 6.12C32.5458 5.868 32.3185 5.69066 32.0531 5.66933L28.2525 5.36666L26.6078 1.72599C26.5005 1.48666 26.2625 1.33333 26.0005 1.33333C25.7385 1.33333 25.5005 1.48666 25.3931 1.72599L23.7485 5.36666L19.9478 5.66866C19.6865 5.68933 19.4618 5.86066 19.3738 6.10666C19.2845 6.35266 19.3485 6.62799 19.5351 6.81066L22.3445 9.54866ZM24.2465 6.66466C24.4885 6.64533 24.7018 6.496 24.8011 6.274L26.0005 3.61999L27.1998 6.274C27.2991 6.496 27.5125 6.64533 27.7545 6.66466L30.4025 6.87466L28.2218 8.83733C28.0325 9.00799 27.9571 9.27066 28.0265 9.516L28.8618 12.4393L26.3711 10.7787C26.1471 10.6287 25.8558 10.6287 25.6318 10.7787L23.0291 12.514L23.7291 9.48333C23.7811 9.25666 23.7118 9.01866 23.5451 8.85666L21.5198 6.882L24.2465 6.66466Z" fill="#B4B7C9"/>
<path d="M40.3445 9.54866L39.3511 13.85C39.2898 14.116 39.3965 14.3927 39.6218 14.548C39.7358 14.6267 39.8678 14.6667 40.0005 14.6667C40.1291 14.6667 40.2585 14.6293 40.3705 14.5547L44.0005 12.1347L47.6305 14.5547C47.8625 14.7093 48.1671 14.7033 48.3938 14.5387C48.6191 14.374 48.7185 14.0853 48.6418 13.8173L47.4225 9.55066L50.4465 6.82933C50.6445 6.65066 50.7171 6.372 50.6318 6.12C50.5458 5.868 50.3185 5.69066 50.0531 5.66933L46.2525 5.36666L44.6078 1.72599C44.5005 1.48666 44.2625 1.33333 44.0005 1.33333C43.7385 1.33333 43.5005 1.48666 43.3931 1.72599L41.7485 5.36666L37.9478 5.66866C37.6865 5.68933 37.4618 5.86066 37.3738 6.10666C37.2845 6.35266 37.3485 6.62799 37.5351 6.81066L40.3445 9.54866ZM42.2465 6.66466C42.4885 6.64533 42.7018 6.496 42.8011 6.274L44.0005 3.61999L45.1998 6.274C45.2991 6.496 45.5125 6.64533 45.7545 6.66466L48.4025 6.87466L46.2218 8.83733C46.0325 9.00799 45.9571 9.27066 46.0265 9.516L46.8618 12.4393L44.3711 10.7787C44.1471 10.6287 43.8558 10.6287 43.6318 10.7787L41.0291 12.514L41.7291 9.48333C41.7811 9.25666 41.7118 9.01866 41.5451 8.85666L39.5198 6.882L42.2465 6.66466Z" fill="#B4B7C9"/>
<path d="M58.3445 9.54866L57.3511 13.85C57.2898 14.116 57.3965 14.3927 57.6218 14.548C57.7358 14.6267 57.8678 14.6667 58.0005 14.6667C58.1291 14.6667 58.2585 14.6293 58.3705 14.5547L62.0005 12.1347L65.6305 14.5547C65.8625 14.7093 66.1671 14.7033 66.3938 14.5387C66.6191 14.374 66.7185 14.0853 66.6418 13.8173L65.4225 9.55066L68.4465 6.82933C68.6445 6.65066 68.7171 6.372 68.6318 6.12C68.5458 5.868 68.3185 5.69066 68.0531 5.66933L64.2525 5.36666L62.6078 1.72599C62.5005 1.48666 62.2625 1.33333 62.0005 1.33333C61.7385 1.33333 61.5005 1.48666 61.3931 1.72599L59.7485 5.36666L55.9478 5.66866C55.6865 5.68933 55.4618 5.86066 55.3738 6.10666C55.2845 6.35266 55.3485 6.62799 55.5351 6.81066L58.3445 9.54866ZM60.2465 6.66466C60.4885 6.64533 60.7018 6.496 60.8011 6.274L62.0005 3.61999L63.1998 6.274C63.2991 6.496 63.5125 6.64533 63.7545 6.66466L66.4025 6.87466L64.2218 8.83733C64.0325 9.00799 63.9571 9.27066 64.0265 9.516L64.8618 12.4393L62.3711 10.7787C62.1471 10.6287 61.8558 10.6287 61.6318 10.7787L59.0291 12.514L59.7291 9.48333C59.7811 9.25666 59.7118 9.01866 59.5451 8.85666L57.5198 6.882L60.2465 6.66466Z" fill="#B4B7C9"/>
<path d="M76.3445 9.54866L75.3511 13.85C75.2898 14.116 75.3965 14.3927 75.6218 14.548C75.7358 14.6267 75.8678 14.6667 76.0005 14.6667C76.1291 14.6667 76.2585 14.6293 76.3705 14.5547L80.0005 12.1347L83.6305 14.5547C83.8625 14.7093 84.1671 14.7033 84.3938 14.5387C84.6191 14.374 84.7185 14.0853 84.6418 13.8173L83.4225 9.55066L86.4465 6.82933C86.6445 6.65066 86.7171 6.372 86.6318 6.12C86.5458 5.868 86.3185 5.69066 86.0531 5.66933L82.2525 5.36666L80.6078 1.72599C80.5005 1.48666 80.2625 1.33333 80.0005 1.33333C79.7385 1.33333 79.5005 1.48666 79.3931 1.72599L77.7485 5.36666L73.9478 5.66866C73.6865 5.68933 73.4618 5.86066 73.3738 6.10666C73.2845 6.35266 73.3485 6.628 73.5351 6.81066L76.3445 9.54866ZM78.2465 6.66466C78.4885 6.64533 78.7018 6.496 78.8011 6.274L80.0005 3.61999L81.1998 6.274C81.2991 6.496 81.5125 6.64533 81.7545 6.66466L84.4025 6.87466L82.2218 8.83733C82.0325 9.00799 81.9571 9.27066 82.0265 9.516L82.8618 12.4393L80.3711 10.7787C80.1471 10.6287 79.8558 10.6287 79.6318 10.7787L77.0291 12.514L77.7291 9.48333C77.7811 9.25666 77.7118 9.01866 77.5451 8.85666L75.5198 6.882L78.2465 6.66466Z" fill="#B4B7C9"/>
</svg>
